<?xml version="1.0" encoding="UTF-8" standalone="no"?>
<svg
   id="b142cff6-7277-4db1-8c84-b82a10fcabd4"
   data-name="Layer 1"
   width="1621.2676"
   height="619.32489"
   viewBox="0 0 1621.2677 619.32489"
   version="1.1"
   sodipodi:docname="pic2.svg"
   inkscape:version="1.1 (c4e8f9e, 2021-05-24)"
   xmlns:inkscape="http://www.inkscape.org/namespaces/inkscape"
   xmlns:sodipodi="http://sodipodi.sourceforge.net/DTD/sodipodi-0.dtd"
   xmlns="http://www.w3.org/2000/svg"
   xmlns:svg="http://www.w3.org/2000/svg">
  <defs
     id="defs179" />
  <sodipodi:namedview
     id="namedview177"
     pagecolor="#505050"
     bordercolor="#eeeeee"
     borderopacity="1"
     inkscape:pageshadow="0"
     inkscape:pageopacity="0"
     inkscape:pagecheckerboard="0"
     showgrid="false"
     inkscape:zoom="0.43528885"
     inkscape:cx="531.83076"
     inkscape:cy="328.51749"
     inkscape:window-width="1366"
     inkscape:window-height="707"
     inkscape:window-x="0"
     inkscape:window-y="0"
     inkscape:window-maximized="1"
     inkscape:current-layer="b142cff6-7277-4db1-8c84-b82a10fcabd4"
     inkscape:object-nodes="false"
     inkscape:snap-nodes="true"
     inkscape:snap-grids="false" />
  <path
     d="M 915.68486,362.93308 A 214.24321,214.24321 0 0 1 667.53007,574.34699 H 328.08654 a 290.96987,290.96987 0 0 1 -39.56219,2.70142 q -14.25038,0 -28.15708,-1.3587 A 288.22049,288.22049 0 0 1 1.49943e-4,288.5242 C 1.49943e-4,129.17253 129.18067,-1.4580002e-7 288.52435,-1.4580002e-7 416.85768,-1.4580002e-7 525.60173,83.791904 563.07791,199.64916 a 213.26814,213.26814 0 0 1 138.53158,-50.83141 c 118.215,0 214.07537,95.86037 214.07537,214.11533 z"
     fill="#6c63ff"
     opacity="0.1"
     id="path451"
     style="stroke-width:0.799236" />
  <path
     d="M 833.43548,531.62782 A 214.44302,214.44302 0 0 1 667.53007,574.34699 H 328.08654 a 290.96987,290.96987 0 0 1 -39.56219,2.70142 q -14.25038,0 -28.15708,-1.3587 A 288.66007,288.66007 0 0 1 13.403338,375.71286 C 41.04092,316.65731 112.04505,274.63348 195.29347,274.63348 c 81.12246,0 150.65599,39.91385 179.67625,96.60366 a 241.22542,241.22542 0 0 1 43.3106,-3.89228 c 84.07963,0 155.6672,42.895 182.69736,102.8377 a 236.27814,236.27814 0 0 1 69.06199,-10.15829 c 68.57445,0.032 128.84484,28.54072 163.39581,71.60355 z"
     fill="#6c63ff"
     opacity="0.1"
     id="path453"
     style="stroke-width:0.799236" />
  <path
     d="m 281.09146,538.06967 c 0,20.47642 -7.85649,31.5938 -20.72419,37.62004 a 286.98168,286.98168 0 0 1 -135.07089,-49.21696 77.589833,77.589833 0 0 1 5.8584,-20.18071 l 36.59702,11.38112 -32.59285,-19.18166 a 78.429031,78.429031 0 0 1 16.66407,-19.93295 l 61.48523,19.11773 -48.16995,-28.29296 a 78.32513,78.32513 0 0 1 111.32558,42.12773 l 0.16784,0.47954 c 0.12788,0.35966 0.25576,0.71932 0.37564,1.08697 q 0.64738,1.91017 1.19086,3.86031 c 0.13587,0.46355 0.26375,0.92711 0.37564,1.39866 0.1119,0.47155 0.23178,0.89514 0.33568,1.34271 0.1039,0.44758 0.19182,0.79924 0.27174,1.16689 0.0559,0.23977 0.1119,0.47954 0.15985,0.71931 0.0879,0.38364 0.16784,0.79924 0.23977,1.15889 0.1119,0.55947 0.22379,1.12693 0.3197,1.68639 0.0959,0.55947 0.19981,1.16689 0.28772,1.75033 0.0879,0.58344 0.19182,1.29476 0.27174,1.95013 0.0799,0.65538 0.14386,1.16689 0.19981,1.75033 0,0.18383 0.04,0.35966 0.0559,0.54348 0.0559,0.51151 0.0959,1.02302 0.13587,1.53454 a 1.686388,1.686388 0 0 1 0,0.1998 q 0.0719,0.95909 0.11988,1.91817 0.048,0.95908 0.0719,1.87021 a 1.3507089,1.3507089 0 0 1 0,0.18383 c 0.04,0.63939 0.048,1.29476 0.048,1.95813 z"
     fill="#6c63ff"
     id="path455"
     style="stroke-width:0.799236" />
  <path
     d="m 1022.2689,43.703414 h -25.99995 a 5.00573,5.00573 0 0 1 -5,-5 v -26 a 5.00573,5.00573 0 0 1 5,-4.9999998 h 25.99995 a 5.00573,5.00573 0 0 1 5,4.9999998 v 26 a 5.00573,5.00573 0 0 1 -5,5 z M 996.26895,9.7034142 a 3.00328,3.00328 0 0 0 -3,2.9999998 v 26 a 3.00328,3.00328 0 0 0 3,3 h 25.99995 a 3.00328,3.00328 0 0 0 3,-3 v -26 a 3.00328,3.00328 0 0 0 -3,-2.9999998 z"
     fill="#e6e6e6"
     id="path124" />
  <g
     id="g168"
     transform="translate(184.97253,7.7034142)">
    <path
       d="m 1140.2964,191 h -26 a 5.00573,5.00573 0 0 1 -5,-5 v -26 a 5.00573,5.00573 0 0 1 5,-5 h 26 a 5.00573,5.00573 0 0 1 5,5 v 26 a 5.00573,5.00573 0 0 1 -5,5 z m -26,-34 a 3.00328,3.00328 0 0 0 -3,3 v 26 a 3.00328,3.00328 0 0 0 3,3 h 26 a 3.00328,3.00328 0 0 0 3,-3 v -26 a 3.00328,3.00328 0 0 0 -3,-3 z"
       fill="#e6e6e6"
       id="path122" />
    <path
       d="m 1124.2964,178 h -26 a 5.00573,5.00573 0 0 1 -5,-5 v -26 a 5.00573,5.00573 0 0 1 5,-5 h 26 a 5.00573,5.00573 0 0 1 5,5 v 26 a 5.00573,5.00573 0 0 1 -5,5 z m -26,-34 a 3.00328,3.00328 0 0 0 -3,3 v 26 a 3.00328,3.00328 0 0 0 3,3 h 26 a 3.00328,3.00328 0 0 0 3,-3 v -26 a 3.00328,3.00328 0 0 0 -3,-3 z"
       fill="#e6e6e6"
       id="path126" />
  </g>
  <g
     id="g164"
     transform="translate(178.67438,128.46427)">
    <path
       d="m 672.29641,395 h -26 a 5.00573,5.00573 0 0 1 -5,-5 v -26 a 5.00573,5.00573 0 0 1 5,-5 h 26 a 5.00573,5.00573 0 0 1 5,5 v 26 a 5.00573,5.00573 0 0 1 -5,5 z m -26,-34 a 3.00328,3.00328 0 0 0 -3,3 v 26 a 3.00328,3.00328 0 0 0 3,3 h 26 a 3.00328,3.00328 0 0 0 3,-3 v -26 a 3.00328,3.00328 0 0 0 -3,-3 z"
       fill="#e6e6e6"
       id="path128" />
    <path
       d="m 656.29641,382 h -26 a 5.00573,5.00573 0 0 1 -5,-5 v -26 a 5.00573,5.00573 0 0 1 5,-5 h 26 a 5.00573,5.00573 0 0 1 5,5 v 26 a 5.00573,5.00573 0 0 1 -5,5 z m -26,-34 a 3.00328,3.00328 0 0 0 -3,3 v 26 a 3.00328,3.00328 0 0 0 3,3 h 26 a 3.00328,3.00328 0 0 0 3,-3 v -26 a 3.00328,3.00328 0 0 0 -3,-3 z"
       fill="#e6e6e6"
       id="path130" />
  </g>
  <rect
     x="349.29401"
     y="145.46526"
     width="262.02872"
     height="158.74226"
     fill="#f0f0f0"
     id="rect19"
     style="stroke-width:0.845253" />
  <path
     d="M 498.91584,222.90077 482.9657,206.4626 a 3.6254884,3.6254884 0 0 0 -2.6663,-1.07131 h -0.0472 a 3.6254969,3.6254969 0 0 0 -2.6663,1.07131 l -15.9501,16.43817 a 3.5198401,3.5198401 0 0 0 -0.16715,4.97493 q 0.0806,0.0863 0.16715,0.16683 a 3.9371082,3.9371082 0 0 0 5.3802,0 l 9.45104,-9.87955 v 25.47257 a 3.8127966,3.8127966 0 0 0 7.61797,0 v -25.47257 l 9.45104,9.87955 a 3.9371082,3.9371082 0 0 0 5.38019,0 3.5198401,3.5198401 0 0 0 0.16715,-4.97493 q -0.0806,-0.0863 -0.16715,-0.16683 z"
     fill="#ffffff"
     id="path29"
     style="stroke-width:0.845253" />
  <path
     d="m 480.30837,264.00192 a 37.432669,37.432669 0 1 1 37.43268,-37.43264 37.475017,37.475017 0 0 1 -37.43268,37.43264 z m 0,-73.47895 a 36.046276,36.046276 0 1 0 36.04628,36.04631 36.087144,36.087144 0 0 0 -36.04628,-36.04631 z"
     fill="#ffffff"
     id="path31"
     style="stroke-width:0.845253" />
  <g
     id="g2402"
     transform="translate(-104.22465,7.7034142)">
    <path
       id="a4df8293-127a-4fe1-b900-32b0737a0281"
       data-name="Path 138"
       d="M 605.35866,381.29383 H 360.62953 c -2.50133,-0.007 -4.52881,-4.15298 -4.53198,-9.27269 V 247.80741 c 0,-5.11873 2.03065,-9.26414 4.53198,-9.27269 h 244.72913 c 2.50133,0.007 4.52879,4.1529 4.53198,9.27269 V 372.02 c -0.003,5.11873 -2.0339,9.2674 -4.53198,9.27383 z"
       fill="#ffffff"
       style="stroke-width:0.845253" />
    <g
       id="f5addd83-a4bf-4cbc-bc49-a1c93dc12b76"
       data-name="Group 38"
       transform="matrix(0.8452539,0,0,0.8452539,1.6051285e-5,73.317011)">
      <circle
         id="b85ea7ab-2687-4539-bc87-5f9af2589fda"
         data-name="Ellipse 7"
         cx="519.76654"
         cy="253.64767"
         r="25.31818"
         fill="#3f3d56" />
      <path
         id="a93bdb3c-c63a-46e2-832f-5ad698cb7678"
         data-name="Path 63"
         d="M 775.88793,479.64341 H 651.68564 a 2.54194,2.54194 0 0 1 -0.46362,-0.0378 L 709.96645,377.858 a 4.112,4.112 0 0 1 7.15945,0 l 39.42288,68.28111 1.8897,3.26664 z"
         transform="translate(-176.72638,-147.97638)"
         fill="#6c63ff" />
      <path
         id="a9a16db8-129a-402e-ab5a-cd8e8637e69a"
         data-name="Path 65"
         d="M 845.03958,479.64468 H 737.614 l 20.81567,-30.23517 1.4979,-2.1782 27.126,-39.404 a 5.4889,5.4889 0 0 1 8.1534,-0.48627 4.90238,4.90238 0 0 1 0.39053,0.48627 z"
         transform="translate(-176.72638,-147.97638)"
         fill="#6c63ff" />
    </g>
    <path
       id="e7d95ff1-9828-4401-a808-15868bd1799b"
       data-name="Path 138"
       d="M 605.35866,381.29383 H 360.62953 c -2.50133,-0.007 -4.52881,-4.15298 -4.53198,-9.27269 V 247.80741 c 0,-5.11873 2.03065,-9.26414 4.53198,-9.27269 h 244.72913 c 2.50133,0.007 4.52879,4.1529 4.53198,9.27269 V 372.02 c -0.003,5.11873 -2.0339,9.2674 -4.53198,9.27383 z M 360.62953,242.2436 c -1.50141,0 -2.71749,2.4928 -2.71965,5.56381 V 372.02 c 0,3.07101 1.21818,5.56063 2.71965,5.56381 h 244.72913 c 1.5014,0 2.71749,-2.49182 2.71964,-5.56381 V 247.80741 c 0,-3.07093 -1.21816,-5.56063 -2.71964,-5.56381 z"
       fill="#e6e6e6"
       style="stroke-width:0.845253" />
  </g>
  <g
     id="g2699"
     transform="translate(287.95408,-11.485014)">
    <path
       d="m 71.490518,537.65805 -13.656675,12.57254 10.853272,-18.2109 C 60.136341,516.5135 46.151631,503.11233 46.151631,503.11233 c 0,0 -29.01339,27.79715 -29.01339,49.64752 0,21.85036 12.989684,29.47963 29.01339,29.47963 16.023479,0 29.013138,-7.62927 29.013138,-29.47963 -2.6e-5,-4.86344 -1.43945,-10.02124 -3.674251,-15.1018 z"
       fill="#f2f2f2"
       id="path9"
       style="stroke-width:0.845253" />
    <path
       d="m 54.321729,550.91127 v 1.077 c -0.06397,12.51924 -2.175379,22.28722 -6.318273,29.16534 -0.05868,0.10091 -0.122626,0.19694 -0.181302,0.29867 l -0.463874,-0.28239 -0.442512,-0.27752 c 4.596068,-7.42728 6.222277,-17.92574 6.280921,-28.84542 0.0051,-0.35157 0.01066,-0.70884 0.0051,-1.06635 -0.01603,-4.62279 -0.298589,-9.29881 -0.751786,-13.84152 -0.03198,-0.35239 -0.06934,-0.70884 -0.106634,-1.06643 -0.62916,-5.99301 -1.535581,-11.71942 -2.463324,-16.69403 -0.06397,-0.35238 -0.133294,-0.70395 -0.202615,-1.05039 -1.6049,-8.41371 -3.241786,-14.50804 -3.615024,-15.85702 -0.04256,-0.16521 -0.06934,-0.25554 -0.07463,-0.27751 l 0.506535,-0.14405 0.0051,-0.005 0.511874,-0.14405 c 0.0051,0.0244 0.09596,0.32553 0.245243,0.89048 0.570549,2.11136 2.052791,7.84314 3.508378,15.40372 0.06397,0.34099 0.133295,0.69337 0.197277,1.04502 0.757117,4.03628 1.498255,8.54702 2.084785,13.28171 q 0.223905,1.78356 0.399893,3.5191 c 0.04256,0.35726 0.08,0.71453 0.111948,1.06634 q 0.735868,7.366 0.76248,13.80417 z"
       fill="#ffffff"
       id="path11"
       style="stroke-width:0.845253" />
    <path
       d="m 50.765382,518.19485 c -0.357232,0.0488 -0.719795,0.096 -1.087689,0.13346 a 29.414988,29.414988 0 0 1 -3.007185,0.15463 28.612783,28.612783 0 0 1 -12.369945,-2.79391 c -0.223921,0.28239 -0.447858,0.56479 -0.677126,0.85312 a 29.672165,29.672165 0 0 0 13.047068,3.00713 30.434559,30.434559 0 0 0 3.209801,-0.1709 c 0.362563,-0.0407 0.725126,-0.0855 1.082348,-0.13835 a 29.422105,29.422105 0 0 0 8.504344,-2.57524 q -0.343902,-0.44027 -0.671828,-0.86378 a 28.514539,28.514539 0 0 1 -8.029794,2.39392 z"
       fill="#ffffff"
       id="path13"
       style="stroke-width:0.845253" />
    <path
       d="m 53.447331,536.04067 q -0.551856,0.0326 -1.103699,0.0326 c -0.111989,0.005 -0.229268,0.005 -0.341257,0.005 A 28.76454,28.76454 0 0 1 28.392836,523.74563 c -0.213252,0.31495 -0.426537,0.62908 -0.634458,0.94907 a 29.83262,29.83262 0 0 0 24.243995,12.44991 c 0.14931,0 0.298589,0 0.447891,-0.005 0.373207,-0.005 0.741109,-0.0163 1.108974,-0.0326 a 29.674878,29.674878 0 0 0 15.809011,-5.54509 c -0.170624,-0.31495 -0.341249,-0.62908 -0.517212,-0.94378 a 28.567046,28.567046 0 0 1 -15.403706,5.42253 z"
       fill="#ffffff"
       id="path15"
       style="stroke-width:0.845253" />
    <path
       d="m 54.321729,550.91127 c -0.373207,0.0326 -0.746447,0.057 -1.119674,0.0732 -0.399892,0.0163 -0.799785,0.0244 -1.199677,0.0244 A 28.842354,28.842354 0 0 1 24.351308,530.2555 c -0.239945,0.43214 -0.479883,0.8585 -0.709167,1.29039 a 29.898549,29.898549 0 0 0 28.360238,20.52767 c 0.399893,0 0.799785,-0.005 1.194344,-0.0244 0.37857,-0.008 0.75181,-0.0326 1.125033,-0.057 a 29.811082,29.811082 0 0 0 19.67462,-9.6027 c -0.111989,-0.3947 -0.239945,-0.7837 -0.367901,-1.17832 a 28.749266,28.749266 0 0 1 -19.30674,9.70401 z"
       fill="#ffffff"
       id="path17"
       style="stroke-width:0.845253" />
    <path
       d="M 322.88701,583.89031 H 0.84526996 a 0.84527,0.84527 0 1 1 0,-1.69054 H 322.88701 a 0.84527,0.84527 0 0 1 0,1.69054 z"
       fill="#cacaca"
       id="path39"
       style="stroke-width:0.845253" />
  </g>
  <g
     id="g2691"
     transform="translate(1371.4179,-50.688521)">
    <path
       d="m 226.48717,248.59055 c -7.95898,-11.20794 -23.70515,-11.73025 -23.70515,-11.73025 0,0 -15.34376,-1.63528 -25.18669,15.43457 -9.17439,15.91041 3.75224,35.68742 3.75224,35.68742 2.55486,0.15299 13.6012,0.21973 46.47468,-3.84137 l 1.47286,-7.943 4.22542,7.24344 c 1.75669,-0.21403 3.58381,-0.4362 5.49363,-0.66733 -0.86432,-8.42909 -4.86875,-23.39954 -12.52699,-34.18389 z"
       fill="#2f2e41"
       id="path41"
       style="stroke-width:0.845253" />
    <path
       d="m 245.24825,405.40668 -2.10847,-72.52809 -14.35504,6.28013 6.92665,67.0337 a 8.7663819,8.7663819 0 1 0 9.53686,-0.78615 z"
       fill="#ffb8b8"
       id="path43"
       style="stroke-width:0.845253" />
    <path
       d="m 226.54203,342.29874 c 9.36168,0.90578 16.08595,-2.96155 20.63489,-10.76596 l -3.14013,-14.3784 a 22.002526,22.002526 0 0 0 -15.37685,-20.98121 l -1.66933,-0.52735 z"
       fill="#e6e6e6"
       id="path45"
       style="stroke-width:0.845253" />
    <path
       d="m 148.45037,322.35547 a 1.7724975,1.7724975 0 0 1 -0.36548,-0.0407 l -17.31769,-0.29216 -0.0383,-0.43051 7e-4,-0.0163 1.43687,-35.6827 a 2.7779439,2.7779439 0 0 1 2.89889,-2.65287 l 13.87109,0.6185 a 2.7777072,2.7777072 0 0 1 2.65136,2.89881 l -1.36471,33.89262 a 1.776935,1.776935 0 0 1 -1.773,1.70495 z"
       fill="#6c63ff"
       id="path47"
       style="stroke-width:0.845253" />
    <path
       d="m 146.5629,322.38078 c -0.044,0 -0.0885,-8.9e-4 -0.1329,-0.003 l -13.5977,-0.60629 a 2.9182645,2.9182645 0 0 1 -2.78205,-3.04179 l 1.45254,-32.58076 a 2.7809276,2.7809276 0 0 1 2.89889,-2.65117 l 13.87103,0.6185 a 2.7812572,2.7812572 0 0 1 2.65142,2.89905 l -1.45253,32.58076 a 2.9152131,2.9152131 0 0 1 -2.90867,2.78488 z"
       fill="#2f2e41"
       id="path49"
       style="stroke-width:0.845253" />
    <circle
       cx="140.47461"
       cy="292.00769"
       r="1.9857888"
       fill="#6c63ff"
       id="circle51"
       style="stroke-width:0.845253" />
    <path
       d="m 156.98264,331.22109 v 13.09673 L 144.33071,324.3813 a 8.2595933,8.2595933 0 1 0 -8.03574,4.04035 l 17.68599,31.33774 a 8.810546,8.810546 0 0 0 16.44496,-3.50787 l 2.18836,-23.34038 z"
       fill="#ffb8b8"
       id="path53"
       style="stroke-width:0.845253" />
    <path
       d="m 174.30401,341.36058 c -8.81677,0.85304 -15.14964,-2.78919 -19.43379,-10.13933 l 2.95731,-13.54147 a 20.721839,20.721839 0 0 1 14.48185,-19.76 l 1.57217,-0.49643 z"
       fill="#e6e6e6"
       id="path55"
       style="stroke-width:0.845253" />
    <polygon
       points="230.398,594.758 218.985,592.906 220.697,548.005 237.541,550.738 "
       fill="#ffb6b6"
       id="polygon57"
       transform="matrix(0.8452539,0,0,0.8452539,1.6051285e-5,73.317011)" />
    <path
       d="m 196.91165,583.33105 -31.51119,0.0326 -4.1e-4,-0.39877 a 12.26569,12.26569 0 0 1 12.25231,-12.27754 h 7.7e-4 l 19.24597,-0.0163 z"
       fill="#2f2e41"
       id="path59"
       style="stroke-width:0.845253" />
    <polygon
       points="284.937,568.612 274.614,573.82 249.614,536.483 264.849,528.797 "
       fill="#ffb6b6"
       id="polygon61"
       transform="matrix(0.8452539,0,0,0.8452539,1.6051285e-5,73.317011)" />
    <path
       d="m 247.3366,561.27276 -28.13314,14.19448 -0.17953,-0.35564 a 12.265708,12.265708 0 0 1 5.42484,-16.47511 l 6.9e-4,-3.3e-4 17.1828,-8.66941 z"
       fill="#2f2e41"
       id="path63"
       style="stroke-width:0.845253" />
    <circle
       cx="201.70117"
       cy="267.55301"
       r="17.154436"
       fill="#ffb8b8"
       id="circle65"
       style="stroke-width:0.845253" />
    <path
       d="m 222.96838,250.26066 -15.5563,-8.14889 -21.48286,3.33379 -4.44466,19.63101 c 21.93964,3.155 37.12525,4.96459 42.22473,-0.37029 z"
       fill="#2f2e41"
       id="path67"
       style="stroke-width:0.845253" />
    <path
       d="m 174.03446,374.82058 c 0,0 -13.07705,26.74554 1.412,66.32316 l 40.02054,102.04825 19.1324,-11.31016 -19.50239,-43.93397 15.8638,-53.77624 a 93.460168,93.460168 0 0 0 3.30951,-37.62967 c -1.14326,-9.45669 -3.79677,-19.07379 -9.56853,-23.92209 -13.58057,-11.40765 -50.66733,2.20072 -50.66733,2.20072 z"
       fill="#2f2e41"
       id="path69"
       style="stroke-width:0.845253" />
    <polygon
       points="231.778,481.348 214.613,568.374 237.473,572.684 251.854,497.356 "
       fill="#2f2e41"
       id="polygon71"
       transform="matrix(0.8452539,0,0,0.8452539,1.6051285e-5,73.317011)" />
    <path
       d="m 214.35391,293.0832 -22.17932,0.29541 -19.41477,4.46606 1.1506,77.76271 c 0,0 35.10206,9.93131 50.51976,-3.80255 l 10.16938,-72.78266 c -5.70629,-3.22514 -12.5583,-5.08178 -20.24565,-5.93922 z"
       fill="#e4e4e4"
       id="path73"
       style="stroke-width:0.845253" />
    <circle
       cx="212.39003"
       cy="239.0069"
       r="10.9883"
       fill="#2f2e41"
       id="circle75"
       style="stroke-width:0.845253" />
    <path
       d="m 201.40173,236.47097 a 10.982587,10.982587 0 0 1 13.13311,-10.77564 10.983136,10.983136 0 1 0 -6.82543,20.70614 10.979003,10.979003 0 0 1 -6.30768,-9.9305 z"
       fill="#2f2e41"
       id="path77"
       style="stroke-width:0.845253" />
  </g>
  <g
     id="g160"
     transform="matrix(0.81891588,0,0,0.81891588,309.19128,23.283447)">
    <path
       d="m 717.72572,86.03859 h 240.6155 a 51.15008,51.15008 0 0 1 49.89778,39.90062 l 121.5783,539.26727 a 41.34046,41.34046 0 0 1 -38.2939,50.38232 l -247.35428,12.18714 a 54.61491,54.61491 0 0 1 -56.4305,-44.82746 l -68.9666,-381.268 -5.1308,1.466 -13.19613,-72.26456 5.28146,-1.32037 L 686.47556,123.136 a 31.49278,31.49278 0 0 1 31.25016,-37.09738 z"
       fill="#3f3d56"
       id="path132" />
    <path
       d="m 926.66462,97.66378 h 28.0871 a 35.34863,35.34863 0 0 1 34.5361,27.81348 l 116.69848,534.86752 a 21.90324,21.90324 0 0 1 -19.9674,26.52539 l -246.55418,16.159 a 28.36684,28.36684 0 0 1 -29.7728,-23.27746 L 710.11246,126.914 a 24.84579,24.84579 0 0 1 24.45226,-29.25017 h 26.645 a 11.72585,11.72585 0 0 1 11.3227,8.67742 v 0 a 10.35184,10.35184 0 0 0 9.9959,7.66063 h 126.4931 a 17.69522,17.69522 0 0 0 17.6431,-16.33806 z"
       fill="#ffffff"
       id="path134" />
    <polygon
       points="371.476,188.606 399.971,317 129,322 104,188.606 "
       fill="#6c63ff"
       id="polygon136"
       transform="translate(625.29641)" />
    <polygon
       points="448.971,572.809 386,572.809 384,560.754 446.971,560.754 "
       fill="#6c63ff"
       id="polygon144"
       transform="translate(545.5229,104.33115)" />
    <rect
       x="791.6424"
       y="619.53375"
       width="267.12454"
       height="1.25708"
       transform="rotate(-1.21314)"
       fill="#2f2e41"
       id="rect146" />
    <rect
       x="795.72778"
       y="648.63354"
       width="272.16437"
       height="1.25714"
       transform="rotate(-1.32299)"
       fill="#2f2e41"
       id="rect148" />
    <g
       id="g2416"
       transform="matrix(1.0639269,-0.01058475,0.20012771,1.0063012,302.75684,-51.21125)">
      <path
         id="path2404"
         data-name="Path 138"
         d="M 605.35866,381.29383 H 360.62953 c -2.50133,-0.007 -4.52881,-4.15298 -4.53198,-9.27269 V 247.80741 c 0,-5.11873 2.03065,-9.26414 4.53198,-9.27269 h 244.72913 c 2.50133,0.007 4.52879,4.1529 4.53198,9.27269 V 372.02 c -0.003,5.11873 -2.0339,9.2674 -4.53198,9.27383 z"
         fill="#ffffff"
         style="stroke-width:0.845253" />
      <g
         id="g2412"
         data-name="Group 38"
         transform="matrix(0.8452539,0,0,0.8452539,1.6051285e-5,73.317011)">
        <circle
           id="circle2406"
           data-name="Ellipse 7"
           cx="519.76654"
           cy="253.64767"
           r="25.31818"
           fill="#3f3d56" />
        <path
           id="path2408"
           data-name="Path 63"
           d="M 775.88793,479.64341 H 651.68564 a 2.54194,2.54194 0 0 1 -0.46362,-0.0378 L 709.96645,377.858 a 4.112,4.112 0 0 1 7.15945,0 l 39.42288,68.28111 1.8897,3.26664 z"
           transform="translate(-176.72638,-147.97638)"
           fill="#6c63ff" />
        <path
           id="path2410"
           data-name="Path 65"
           d="M 845.03958,479.64468 H 737.614 l 20.81567,-30.23517 1.4979,-2.1782 27.126,-39.404 a 5.4889,5.4889 0 0 1 8.1534,-0.48627 4.90238,4.90238 0 0 1 0.39053,0.48627 z"
           transform="translate(-176.72638,-147.97638)"
           fill="#6c63ff" />
      </g>
      <path
         id="path2414"
         data-name="Path 138"
         d="M 605.35866,381.29383 H 360.62953 c -2.50133,-0.007 -4.52881,-4.15298 -4.53198,-9.27269 V 247.80741 c 0,-5.11873 2.03065,-9.26414 4.53198,-9.27269 h 244.72913 c 2.50133,0.007 4.52879,4.1529 4.53198,9.27269 V 372.02 c -0.003,5.11873 -2.0339,9.2674 -4.53198,9.27383 z M 360.62953,242.2436 c -1.50141,0 -2.71749,2.4928 -2.71965,5.56381 V 372.02 c 0,3.07101 1.21818,5.56063 2.71965,5.56381 h 244.72913 c 1.5014,0 2.71749,-2.49182 2.71964,-5.56381 V 247.80741 c 0,-3.07093 -1.21816,-5.56063 -2.71964,-5.56381 z"
         fill="#e6e6e6"
         style="stroke-width:0.845253" />
    </g>
  </g>
</svg>
