<?xml version="1.0" encoding="UTF-8" standalone="no"?>
<svg
   id="a1212bf3-9185-42b2-b4ae-71da1a4f72e3"
   data-name="Layer 1"
   width="137mm"
   height="85.416565mm"
   viewBox="0 0 517.79528 322.83426"
   version="1.1"
   sodipodi:docname="pic1.svg"
   inkscape:version="1.1 (c4e8f9e, 2021-05-24)"
   xmlns:inkscape="http://www.inkscape.org/namespaces/inkscape"
   xmlns:sodipodi="http://sodipodi.sourceforge.net/DTD/sodipodi-0.dtd"
   xmlns="http://www.w3.org/2000/svg"
   xmlns:svg="http://www.w3.org/2000/svg">
  <defs
     id="defs82" />
  <sodipodi:namedview
     id="namedview80"
     pagecolor="#505050"
     bordercolor="#eeeeee"
     borderopacity="1"
     inkscape:pageshadow="0"
     inkscape:pageopacity="0"
     inkscape:pagecheckerboard="0"
     showgrid="false"
     inkscape:zoom="3.0328754"
     inkscape:cx="32.47743"
     inkscape:cy="13.848244"
     inkscape:window-width="1366"
     inkscape:window-height="707"
     inkscape:window-x="0"
     inkscape:window-y="0"
     inkscape:window-maximized="1"
     inkscape:current-layer="a1212bf3-9185-42b2-b4ae-71da1a4f72e3"
     units="mm"
     inkscape:document-units="mm" />
  <g
     id="g278"
     transform="matrix(5.8890519,0,0,5.8890519,1.1615275e-5,-3234.4313)">
    <path
       d="m 8.7846133,598.36631 -1.6781055,1.54489 1.3336289,-2.23772 c -1.0507025,-1.90537 -2.7691163,-3.55208 -2.7691163,-3.55208 0,0 -3.5651088,3.41566 -3.5651088,6.10059 0,2.68493 1.5961471,3.6224 3.5651088,3.6224 1.9689338,0 3.5650777,-0.93747 3.5650777,-3.6224 -3.1e-6,-0.59761 -0.1768768,-1.23139 -0.4514848,-1.85568 z"
       fill="#f2f2f2"
       id="path9"
       style="stroke-width:0.103863" />
    <path
       d="m 6.6749461,599.99484 v 0.13234 c -0.00786,1.53834 -0.2673064,2.73861 -0.7763771,3.58378 -0.00721,0.0124 -0.015068,0.0242 -0.022278,0.0367 l -0.057,-0.0347 -0.054375,-0.0341 c 0.5647559,-0.91265 0.7645813,-2.20268 0.7717874,-3.54447 6.232e-4,-0.0432 0.00131,-0.0871 6.232e-4,-0.13103 -0.00197,-0.56804 -0.03669,-1.14262 -0.092378,-1.70082 -0.00393,-0.0433 -0.00852,-0.0871 -0.013103,-0.13104 -0.07731,-0.73641 -0.1886892,-1.44006 -0.3026884,-2.05133 -0.00786,-0.0433 -0.016379,-0.0865 -0.024897,-0.12907 -0.197207,-1.03386 -0.3983443,-1.78272 -0.4442071,-1.94848 -0.00523,-0.0203 -0.00852,-0.0314 -0.00917,-0.0341 l 0.062242,-0.0177 6.232e-4,-6.2e-4 0.062898,-0.0177 c 6.232e-4,0.003 0.011792,0.04 0.030135,0.10942 0.070108,0.25944 0.252243,0.96375 0.4311027,1.89278 0.00786,0.0419 0.016379,0.0852 0.024241,0.12841 0.093033,0.49597 0.1841026,1.05024 0.2561743,1.63203 q 0.027513,0.21916 0.049138,0.43242 c 0.00523,0.0439 0.00983,0.0878 0.013756,0.13103 q 0.090422,0.90512 0.093692,1.69623 z"
       fill="#ffffff"
       id="path11"
       style="stroke-width:0.103863" />
    <path
       d="m 6.2379491,595.97471 c -0.043896,0.006 -0.088447,0.0118 -0.1336531,0.0164 a 3.6144563,3.6144563 0 0 1 -0.3695171,0.019 3.5158829,3.5158829 0 0 1 -1.5199946,-0.34331 c -0.027515,0.0347 -0.055032,0.0694 -0.083204,0.10483 a 3.6460577,3.6460577 0 0 0 1.6031983,0.36951 3.7397392,3.7397392 0 0 0 0.3944141,-0.021 c 0.044551,-0.005 0.089102,-0.0105 0.1329968,-0.017 a 3.6153308,3.6153308 0 0 0 1.0449972,-0.31644 q -0.042258,-0.0541 -0.082553,-0.10614 a 3.5038109,3.5038109 0 0 1 -0.9866854,0.29416 z"
       fill="#ffffff"
       id="path13"
       style="stroke-width:0.103863" />
    <path
       d="m 6.5675017,598.16757 q -0.067811,0.004 -0.1356203,0.004 c -0.013761,6.2e-4 -0.028172,6.2e-4 -0.041933,6.2e-4 a 3.5345305,3.5345305 0 0 1 -2.9010941,-1.51541 c -0.026204,0.0387 -0.052412,0.0773 -0.077961,0.11662 a 3.6657741,3.6657741 0 0 0 2.9790548,1.52982 c 0.018347,0 0.03669,0 0.055036,-6.2e-4 0.045859,-6.2e-4 0.091066,-0.002 0.1362685,-0.004 a 3.6463911,3.6463911 0 0 0 1.9425805,-0.68137 c -0.020966,-0.0387 -0.041932,-0.0773 -0.063554,-0.11597 a 3.5102629,3.5102629 0 0 1 -1.8927774,0.66631 z"
       fill="#ffffff"
       id="path15"
       style="stroke-width:0.103863" />
    <path
       d="m 6.6749461,599.99484 c -0.045859,0.004 -0.091722,0.007 -0.1375834,0.009 -0.049138,0.002 -0.098276,0.003 -0.147414,0.003 A 3.5440922,3.5440922 0 0 1 2.9922392,597.4567 c -0.029484,0.0531 -0.058967,0.10549 -0.087141,0.15856 a 3.6738754,3.6738754 0 0 0 3.4848507,2.5224 c 0.049138,0 0.098276,-6.2e-4 0.1467586,-0.003 0.046518,-0.001 0.092381,-0.004 0.1382419,-0.007 a 3.6631276,3.6631276 0 0 0 2.4175789,-1.17996 c -0.013761,-0.0485 -0.029484,-0.0963 -0.045207,-0.14479 a 3.5326537,3.5326537 0 0 1 -2.3723745,1.19241 z"
       fill="#ffffff"
       id="path17"
       style="stroke-width:0.103863" />
    <rect
       x="55.727486"
       y="549.22784"
       width="32.197578"
       height="19.505939"
       fill="#f0f0f0"
       id="rect19"
       style="stroke-width:0.103863" />
    <path
       d="m 74.112724,558.74297 -1.959922,-2.01989 a 0.44549294,0.44549294 0 0 0 -0.327629,-0.13164 h -0.0058 a 0.44549398,0.44549398 0 0 0 -0.32763,0.13164 l -1.959917,2.01989 a 0.43251108,0.43251108 0 0 0 -0.02054,0.61131 q 0.0099,0.0106 0.02054,0.0205 a 0.48378417,0.48378417 0 0 0 0.661108,0 l 1.161325,-1.21398 v 3.13002 a 0.46850901,0.46850901 0 0 0 0.936082,0 v -3.13002 l 1.161325,1.21398 a 0.48378417,0.48378417 0 0 0 0.661107,0 0.43251108,0.43251108 0 0 0 0.02054,-0.61131 q -0.0099,-0.0106 -0.02054,-0.0205 z"
       fill="#ffffff"
       id="path29"
       style="stroke-width:0.103863" />
    <path
       d="m 71.826275,563.7934 a 4.5996533,4.5996533 0 1 1 4.599654,-4.59965 4.6048569,4.6048569 0 0 1 -4.599654,4.59965 z m 0,-9.02895 a 4.429296,4.429296 0 1 0 4.429296,4.4293 4.4343178,4.4343178 0 0 0 -4.429296,-4.4293 z"
       fill="#ffffff"
       id="path31"
       style="stroke-width:0.103863" />
    <path
       id="a4df8293-127a-4fe1-b900-32b0737a0281"
       data-name="Path 138"
       d="M 74.385288,579.15258 H 44.313451 c -0.307359,-8.3e-4 -0.556491,-0.51031 -0.556881,-1.13941 v -15.26314 c 0,-0.62898 0.249522,-1.13836 0.556881,-1.13941 h 30.071837 c 0.307359,8.3e-4 0.55649,0.5103 0.556881,1.13941 v 15.263 c -4.15e-4,0.62898 -0.249921,1.13876 -0.556881,1.13955 z"
       fill="#ffffff"
       style="stroke-width:0.103863" />
    <g
       id="f5addd83-a4bf-4cbc-bc49-a1c93dc12b76"
       data-name="Group 38"
       transform="matrix(0.10386315,0,0,0.10386315,0,541.30899)">
      <circle
         id="b85ea7ab-2687-4539-bc87-5f9af2589fda"
         data-name="Ellipse 7"
         cx="519.76654"
         cy="253.64767"
         r="25.31818"
         fill="#3f3d56" />
      <path
         id="a93bdb3c-c63a-46e2-832f-5ad698cb7678"
         data-name="Path 63"
         d="M 775.88793,479.64341 H 651.68564 a 2.54194,2.54194 0 0 1 -0.46362,-0.0378 L 709.96645,377.858 a 4.112,4.112 0 0 1 7.15945,0 l 39.42288,68.28111 1.8897,3.26664 z"
         transform="translate(-176.72638,-147.97638)"
         fill="#6c63ff" />
      <path
         id="a9a16db8-129a-402e-ab5a-cd8e8637e69a"
         data-name="Path 65"
         d="M 845.03958,479.64468 H 737.614 l 20.81567,-30.23517 1.4979,-2.1782 27.126,-39.404 a 5.4889,5.4889 0 0 1 8.1534,-0.48627 4.90238,4.90238 0 0 1 0.39053,0.48627 z"
         transform="translate(-176.72638,-147.97638)"
         fill="#6c63ff" />
    </g>
    <path
       id="e7d95ff1-9828-4401-a808-15868bd1799b"
       data-name="Path 138"
       d="M 74.385288,579.15258 H 44.313451 c -0.307359,-8.3e-4 -0.556491,-0.51031 -0.556881,-1.13941 v -15.26314 c 0,-0.62898 0.249522,-1.13836 0.556881,-1.13941 h 30.071837 c 0.307359,8.3e-4 0.55649,0.5103 0.556881,1.13941 v 15.263 c -4.15e-4,0.62898 -0.249921,1.13876 -0.556881,1.13955 z M 44.313451,562.06636 c -0.184491,0 -0.33392,0.30631 -0.334185,0.68367 v 15.263 c 0,0.37736 0.149687,0.68328 0.334185,0.68367 h 30.071837 c 0.18449,0 0.33392,-0.30619 0.334185,-0.68367 v -15.263 c 0,-0.37735 -0.149686,-0.68328 -0.334185,-0.68367 z"
       fill="#e6e6e6"
       style="stroke-width:0.103863" />
    <path
       d="M 39.675723,604.04724 H 0.10386315 a 0.103865,0.103865 0 1 1 0,-0.20773 H 39.675723 a 0.103865,0.103865 0 0 1 0,0.20773 z"
       fill="#cacaca"
       id="path39"
       style="stroke-width:0.103863" />
    <path
       d="m 27.830299,562.84626 c -0.977983,-1.37721 -2.912842,-1.44139 -2.912842,-1.44139 0,0 -1.885411,-0.20094 -3.094892,1.89657 -1.127331,1.95504 0.461069,4.3852 0.461069,4.3852 0.313936,0.0188 1.671288,0.027 5.710718,-0.47202 l 0.180981,-0.97602 0.519212,0.89006 c 0.215859,-0.0263 0.440372,-0.0536 0.675047,-0.082 -0.106207,-1.03575 -0.598263,-2.87529 -1.539293,-4.20045 z"
       fill="#2f2e41"
       id="path41"
       style="stroke-width:0.103863" />
    <path
       d="m 30.135624,582.11552 -0.259084,-8.91211 -1.76392,0.77169 0.851133,8.23697 a 1.0771959,1.0771959 0 1 0 1.171871,-0.0966 z"
       fill="#ffb8b8"
       id="path43"
       style="stroke-width:0.103863" />
    <path
       d="m 27.837041,574.36094 c 1.150345,0.1113 1.97661,-0.36391 2.535574,-1.3229 l -0.385852,-1.76679 a 2.7036274,2.7036274 0 0 0 -1.889478,-2.57813 l -0.205124,-0.0648 z"
       fill="#e6e6e6"
       id="path45"
       style="stroke-width:0.103863" />
    <path
       d="m 18.24129,571.91035 a 0.21780103,0.21780103 0 0 1 -0.04491,-0.005 l -2.127964,-0.0359 -0.0047,-0.0529 8.6e-5,-0.002 0.17656,-4.38462 a 0.34134832,0.34134832 0 0 1 0.35621,-0.32598 l 1.704452,0.076 a 0.34131924,0.34131924 0 0 1 0.325794,0.3562 l -0.167692,4.16466 a 0.21834631,0.21834631 0 0 1 -0.217863,0.2095 z"
       fill="#6c63ff"
       id="path47"
       style="stroke-width:0.103863" />
    <path
       d="m 18.009361,571.91346 c -0.0054,0 -0.01087,-1.1e-4 -0.01633,-4.2e-4 l -1.670859,-0.0745 a 0.35859064,0.35859064 0 0 1 -0.341853,-0.37377 l 0.178485,-4.00346 a 0.34171496,0.34171496 0 0 1 0.35621,-0.32577 l 1.704445,0.076 a 0.34175546,0.34175546 0 0 1 0.325802,0.35623 l -0.178485,4.00346 a 0.3582157,0.3582157 0 0 1 -0.357411,0.3422 z"
       fill="#2f2e41"
       id="path49"
       style="stroke-width:0.103863" />
    <circle
       cx="17.261244"
       cy="568.18127"
       r="0.24400985"
       fill="#6c63ff"
       id="circle51"
       style="stroke-width:0.103863" />
    <path
       d="m 19.289719,572.99974 v 1.6093 l -1.554645,-2.44976 a 1.0149227,1.0149227 0 1 0 -0.987416,0.49647 l 2.17322,3.85072 a 1.0826227,1.0826227 0 0 0 2.020724,-0.43104 l 0.268902,-2.86802 z"
       fill="#ffb8b8"
       id="path53"
       style="stroke-width:0.103863" />
    <path
       d="m 21.418134,574.24566 c -1.083387,0.10482 -1.861558,-0.34273 -2.387986,-1.2459 l 0.363389,-1.66395 a 2.5462591,2.5462591 0 0 1 1.779501,-2.42807 l 0.193186,-0.061 z"
       fill="#e6e6e6"
       id="path55"
       style="stroke-width:0.103863" />
    <polygon
       points="237.541,550.738 230.398,594.758 218.985,592.906 220.697,548.005 "
       fill="#ffb6b6"
       id="polygon57"
       transform="matrix(0.10386315,0,0,0.10386315,0,541.30899)" />
    <path
       d="m 24.196117,603.97852 -3.872033,0.004 -5.1e-5,-0.049 a 1.5071841,1.5071841 0 0 1 1.50554,-1.50864 h 9.5e-5 l 2.364907,-0.002 z"
       fill="#2f2e41"
       id="path59"
       style="stroke-width:0.103863" />
    <polygon
       points="264.849,528.797 284.937,568.612 274.614,573.82 249.614,536.483 "
       fill="#ffb6b6"
       id="polygon61"
       transform="matrix(0.10386315,0,0,0.10386315,0,541.30899)" />
    <path
       d="m 30.392237,601.26804 -3.456946,1.74419 -0.02206,-0.0437 a 1.5071862,1.5071862 0 0 1 0.666594,-2.02443 l 8.5e-5,-4e-5 2.111388,-1.06528 z"
       fill="#2f2e41"
       id="path63"
       style="stroke-width:0.103863" />
    <circle
       cx="24.784645"
       cy="565.17633"
       r="2.1079037"
       fill="#ffb8b8"
       id="circle65"
       style="stroke-width:0.103863" />
    <path
       d="m 27.397917,563.05148 -1.911527,-1.00132 -2.639772,0.40965 -0.546151,2.41222 c 2.6959,0.38768 4.561878,0.61004 5.188492,-0.0455 z"
       fill="#2f2e41"
       id="path67"
       style="stroke-width:0.103863" />
    <path
       d="m 21.385013,578.35716 c 0,0 -1.606883,3.28644 0.173504,8.14966 l 4.917646,12.53949 2.350951,-1.38977 -2.396415,-5.39852 1.949312,-6.60792 a 11.484203,11.484203 0 0 0 0.406667,-4.62386 c -0.140482,-1.16202 -0.46654,-2.34375 -1.175762,-2.9395 -1.668755,-1.40175 -6.225903,0.27042 -6.225903,0.27042 z"
       fill="#2f2e41"
       id="path69"
       style="stroke-width:0.103863" />
    <polygon
       points="251.854,497.356 231.778,481.348 214.613,568.374 237.473,572.684 "
       fill="#2f2e41"
       id="polygon71"
       transform="matrix(0.10386315,0,0,0.10386315,0,541.30899)" />
    <path
       d="m 26.339388,568.31343 -2.725351,0.0363 -2.38565,0.54878 0.141384,9.55533 c 0,0 4.313273,1.22034 6.20777,-0.46725 l 1.249593,-8.94339 c -0.701178,-0.3963 -1.543139,-0.62444 -2.487746,-0.7298 z"
       fill="#e4e4e4"
       id="path73"
       style="stroke-width:0.103863" />
    <circle
       cx="26.09807"
       cy="561.66864"
       r="1.3502209"
       fill="#2f2e41"
       id="circle75"
       style="stroke-width:0.103863" />
    <path
       d="m 24.747849,561.35703 a 1.3495188,1.3495188 0 0 1 1.613771,-1.32409 1.3495863,1.3495863 0 1 0 -0.838695,2.54433 1.3490785,1.3490785 0 0 1 -0.775076,-1.22024 z"
       fill="#2f2e41"
       id="path77"
       style="stroke-width:0.103863" />
  </g>
</svg>
