<?xml version="1.0" encoding="UTF-8" standalone="no"?>
<svg
   id="a0aa7367-9b86-4056-8781-911de8774112"
   data-name="Layer 1"
   width="48"
   height="48"
   viewBox="0 0 48.000001 48.000001"
   version="1.1"
   sodipodi:docname="undraw_Delivery_re_f50b.svg"
   inkscape:version="1.1 (c4e8f9e, 2021-05-24)"
   xmlns:inkscape="http://www.inkscape.org/namespaces/inkscape"
   xmlns:sodipodi="http://sodipodi.sourceforge.net/DTD/sodipodi-0.dtd"
   xmlns="http://www.w3.org/2000/svg"
   xmlns:svg="http://www.w3.org/2000/svg">
  <defs
     id="defs149" />
  <sodipodi:namedview
     id="namedview147"
     pagecolor="#505050"
     bordercolor="#eeeeee"
     borderopacity="1"
     inkscape:pageshadow="0"
     inkscape:pageopacity="0"
     inkscape:pagecheckerboard="0"
     showgrid="false"
     inkscape:zoom="6.6720243"
     inkscape:cx="41.591575"
     inkscape:cy="20.08386"
     inkscape:window-width="1366"
     inkscape:window-height="707"
     inkscape:window-x="0"
     inkscape:window-y="0"
     inkscape:window-maximized="1"
     inkscape:current-layer="a0aa7367-9b86-4056-8781-911de8774112" />
  <g
     id="g322"
     transform="matrix(0.12467649,0,0,0.12467649,1.5420195,0)">
    <path
       d="M 341.5,270 H 16.5 A 16.51867,16.51867 0 0 1 0,253.5 V 16.5 A 16.51868,16.51868 0 0 1 16.5,0 h 325 A 16.51867,16.51867 0 0 1 358,16.5 v 237 A 16.51866,16.51866 0 0 1 341.5,270 Z"
       fill="#e6e6e6"
       id="path88" />
    <polygon
       points="185.11,0.5 213.57,57.85 214.57,59.85 256.63,144.59 257.62,146.59 283.08,197.87 318.63,269.5 316.4,269.5 281.96,200.12 280.96,198.12 255.49,146.8 212.33,59.85 211.34,57.85 182.87,0.5 "
       fill="#ffffff"
       id="polygon90" />
    <rect
       x="0.50003999"
       y="57.854591"
       width="357"
       height="2"
       fill="#ffffff"
       id="rect92" />
    <rect
       x="255.91899"
       y="144.59482"
       width="101.58105"
       height="2"
       fill="#ffffff"
       id="rect94" />
    <rect
       x="95.515793"
       y="0.50009"
       width="2"
       height="270"
       fill="#ffffff"
       id="rect96" />
    <rect
       x="96.515793"
       y="198.11728"
       width="186.06213"
       height="2"
       fill="#ffffff"
       id="rect98" />
    <path
       d="m 213.00003,106.00011 c 0,17.04569 -25.068,65.11393 -34.48306,82.56633 a 3.99424,3.99424 0 0 1 -7.03387,0 c -9.41507,-17.4524 -34.48307,-65.52064 -34.48307,-82.56633 a 38,38 0 0 1 76,0 z"
       fill="#6c63ff"
       id="path100" />
    <circle
       cx="175.00003"
       cy="106.0001"
       r="17"
       fill="#e6e6e6"
       id="circle102" />
    <circle
       cx="175.00003"
       cy="200.00011"
       r="7"
       fill="#6c63ff"
       id="circle104" />
    <path
       d="m 175.27006,304.86008 a 38.735,38.735 0 1 0 38.73,38.73 38.775,38.775 0 0 0 -38.73,-38.73 z m 0,75.33 a 36.595,36.595 0 1 1 36.58985,-36.6 36.64309,36.64309 0 0 1 -36.58985,36.60002 z"
       fill="#e6e6e6"
       id="path106" />
    <path
       d="m 194.33013,325.02011 a 5.01621,5.01621 0 0 0 -7.03027,0.93 l -17.27979,22.53 -7.31006,-5.6 a 5.01432,5.01432 0 1 0 -6.10009,7.96 l 11.29,8.64 0.0503,0.04 a 4.984,4.984 0 0 0 3,1 5.03645,5.03645 0 0 0 3.98974,-1.96 l 20.31983,-26.51 a 5.01658,5.01658 0 0 0 -0.92965,-7.03 z"
       fill="#6c63ff"
       id="path108" />
  </g>
</svg>
