<?xml version="1.0" encoding="UTF-8" standalone="no"?>
<!-- Created with Inkscape (http://www.inkscape.org/) -->

<svg
   width="142.38649mm"
   height="31.933243mm"
   viewBox="0 0 142.38649 31.933243"
   version="1.1"
   id="svg8"
   inkscape:version="1.1 (c4e8f9e, 2021-05-24)"
   sodipodi:docname="logo.svg"
   xmlns:inkscape="http://www.inkscape.org/namespaces/inkscape"
   xmlns:sodipodi="http://sodipodi.sourceforge.net/DTD/sodipodi-0.dtd"
   xmlns="http://www.w3.org/2000/svg"
   xmlns:svg="http://www.w3.org/2000/svg"
   xmlns:rdf="http://www.w3.org/1999/02/22-rdf-syntax-ns#"
   xmlns:cc="http://creativecommons.org/ns#"
   xmlns:dc="http://purl.org/dc/elements/1.1/">
  <defs
     id="defs2" />
  <sodipodi:namedview
     id="base"
     pagecolor="#ffffff"
     bordercolor="#666666"
     borderopacity="1.0"
     inkscape:pageopacity="0.0"
     inkscape:pageshadow="2"
     inkscape:zoom="0.35"
     inkscape:cx="224.28571"
     inkscape:cy="-48.571429"
     inkscape:document-units="mm"
     inkscape:current-layer="layer1"
     showgrid="false"
     inkscape:window-width="1366"
     inkscape:window-height="707"
     inkscape:window-x="0"
     inkscape:window-y="0"
     inkscape:window-maximized="1"
     inkscape:pagecheckerboard="0" />
  <metadata
     id="metadata5">
    <rdf:RDF>
      <cc:Work
         rdf:about="">
        <dc:format>image/svg+xml</dc:format>
        <dc:type
           rdf:resource="http://purl.org/dc/dcmitype/StillImage" />
        <dc:title />
      </cc:Work>
    </rdf:RDF>
  </metadata>
  <g
     inkscape:label="Layer 1"
     inkscape:groupmode="layer"
     id="layer1"
     transform="translate(-46.190506,-104.09303)">
    <g
       aria-label="pinboARds"
       id="text12"
       style="font-size:50.8px;line-height:1.25;font-family:Karumbi;-inkscape-font-specification:'Karumbi, Normal';letter-spacing:0px;word-spacing:0px;fill:#f6f6f6;stroke-width:0.264583">
      <path
         d="m 52.184906,120.71915 -0.3048,0.3556 q -0.8128,0.4064 -1.3716,-0.1016 -0.508,-0.5588 -0.1016,-1.3716 1.6764,-2.1336 2.794,-2.7432 0.3556,-1.27 0.6604,-2.4892 0.3556,-1.2192 0.6096,-2.032 0.254,-0.8636 0.4572,-2.0828 0.1524,-1.1684 0.6096,-2.4892 0.9652,-3.302 2.0828,-3.6576 0.6096,-0.1016 1.1176,0.508 l 0.3048,0.762 q 0.2032,0.6604 -0.1016,1.0668 -0.3048,0.3556 -0.8128,0.4064 -1.016,3.1496 -2.54,9.2964 1.0668,-0.0508 2.4384,0 1.4224,0.0508 2.692399,0.8128 1.27,0.7112 1.9812,1.778 0.7112,1.0668 0.6604,2.3368 0,1.27 -1.1684,2.286 -1.1176,1.016 -2.590799,1.524 -1.4732,0.508 -3.0988,1.016 -1.6256,0.4572 -3.8608,0 -2.032,5.842 -4.572,9.6012 -0.5588,0.8636 -1.4224,0.3048 -0.762,-0.508 -0.254,-1.4732 3.3528,-4.8768 5.7912,-13.6144 z m 2.8448,-2.4892 q -0.7112,2.5908 -1.7272,5.7404 2.286,0.3048 3.9624,-0.3048 2.9972,-1.1176 4.114799,-2.8448 -0.508,-1.6764 -2.539999,-2.3876 -1.9304,-0.7112 -3.81,-0.2032 z"
         id="path96" />
      <path
         d="m 67.983689,115.74075 q 0.4572,-0.8636 1.2192,-0.6096 0.8128,0.254 0.7112,1.1684 -0.762,2.7432 -1.3208,5.4864 -0.508,2.6924 -1.27,5.4356 -0.4064,0.9652 -1.27,0.7112 -0.8636,-0.254 -0.6096,-1.3208 0.254,-1.016 0.508,-2.032 0.3048,-1.0668 0.5588,-2.0828 v -0.0508 q 0.4064,-1.6764 0.6604,-3.3528 0.3048,-1.7272 0.8128,-3.3528 z m 2.6416,-7.2644 q 0.8636,0.3048 0.8636,1.0668 0,0.762 -0.9144,0.9652 h -0.2032 q -0.5588,-0.0508 -0.8128,-0.3556 -0.2032,-0.3048 -0.2032,-0.7112 0.0508,-0.8636 1.0668,-0.9652 z"
         id="path98" />
      <path
         d="m 72.911272,126.40875 q -0.6604,-1.5748 -0.5588,-3.81 0.1524,-2.286 0.254,-3.4036 0.1016,-1.1176 -0.0508,-1.8288 -0.4572,-0.254 -0.508,-0.8128 -0.1016,-0.5588 0.254,-0.8128 0.4064,-0.254 0.4572,-0.254 0.8128,-0.4064 1.4224,0.4064 0.762,1.6764 0.254,5.7912 -0.1016,1.016 -0.1016,1.8288 2.286,-3.5052 4.7752,-6.1976 1.778,-1.8796 3.5052,-1.9812 0.8636,-0.0508 1.7272,-0.2032 0.9144,-0.2032 1.6256,0.2032 3.048,1.8288 2.1844,6.0452 -0.3556,1.8288 -1.3208,3.4544 -1.6256,2.794 -2.8956,3.048 -0.4572,0.1016 -0.9144,0.2032 -0.4572,0.1524 -0.8128,-0.0508 -0.3048,-0.2032 -0.4064,-0.5588 -0.254,-0.8636 0.6604,-1.2192 0.9144,-0.3556 1.6764,-1.2192 0.8128,-0.9144 1.3208,-2.032 0.5588,-1.1684 0.762,-2.3368 0.2032,-1.2192 -0.0508,-2.1336 -0.6096,-2.032 -3.3528,-1.1684 -1.5748,0.4572 -2.6924,1.5748 -1.1176,1.1176 -2.032,2.4892 -0.9144,1.3208 -1.778,2.7432 -0.8636,1.3716 -1.9304,2.4384 -0.8128,0.4572 -1.4732,-0.2032 z"
         id="path100" />
      <path
         d="m 98.870064,108.22235 q 0.1016,-0.508 0.4572,-0.7112 0.3556,-0.254 0.711196,-0.2032 0.3556,0.0508 0.6096,0.3556 0.254,0.3048 0.2032,0.8128 -0.4572,4.064 -3.555996,8.4328 0.3048,-0.1016 0.6096,-0.2032 2.336796,-0.9144 3.606796,-0.4572 1.27,0.4064 1.6764,1.3716 0.4064,0.9144 0.2032,2.2352 -0.2032,1.27 -0.8636,2.54 -1.524,2.9972 -4.013196,3.8608 -2.1336,0.762 -3.4544,0.762 -1.3208,0 -2.286,-0.4572 -1.016,-0.4064 -1.5748,-1.1176 -1.8288,-2.032 0.6096,-3.7592 0.254,-0.2032 0.508,-0.4064 -0.5588,-0.5588 -0.1016,-1.3716 3.1496,-3.556 4.1656,-5.1816 2.1336,-3.3528 2.4892,-6.5024 z m 2.590796,11.8364 q 0.2032,-0.8636 0,-1.3208 -0.1524,-0.4572 -1.0668,-0.4572 -0.863596,0 -1.727196,0.3048 -0.8128,0.3048 -1.524,0.762 -0.7112,0.4572 -1.3716,0.9652 -0.6096,0.508 -1.2192,0.8636 0.2032,0.5588 -0.254,1.1176 -1.6764,0.9652 -1.5748,1.8288 0,0.3556 0.9652,0.7112 0.9652,0.4064 2.3876,0.1016 2.4892,-0.508 4.419596,-3.0988 0.762,-0.9144 0.9652,-1.778 z"
         id="path102" />
      <path
         d="m 106.38842,121.88755 q 0.3048,-0.8128 0.7112,-1.8288 0.3048,-1.0668 0.8128,-1.9304 1.1684,-2.286 2.4384,-3.2512 l 0.1524,-0.3048 q 2.6924,-2.3368 5.334,-1.7272 1.2192,0.3048 2.1336,1.1684 0.9144,0.8128 1.3208,1.9812 1.016,2.7432 -0.7112,5.842 -1.1176,2.0828 -3.7592,3.3528 -1.9304,0.9652 -4.9276,1.3208 -1.6764,0.254 -2.8956,-1.3716 -1.2192,-1.6256 -0.6096,-3.2512 z m 8.5344,0.8636 q 1.1684,-0.8128 1.9304,-1.8796 0.762,-1.1176 0.762,-2.8448 0,-1.7272 -0.9144,-2.5908 -0.9144,-0.8636 -2.2352,-0.6604 -0.2032,0.6096 -0.8636,0.762 -1.9304,0.254 -3.5052,2.6924 -1.3716,2.1336 -1.7272,4.1148 -0.1016,0.4064 0.0508,0.8128 0.2032,0.3556 0.3048,0.762 0.3048,0.1016 0.6096,0.3048 0.3048,0.1524 1.016,0.2032 0.762,0.0508 2.0828,-0.4064 1.3716,-0.4572 2.4892,-1.27 z"
         id="path104" />
      <path
         d="m 136.25881,120.61755 q 0.8636,3.7592 0.9652,5.588 -0.1016,0.9652 -0.9652,1.0668 -0.3556,0 -0.7112,-0.254 -0.3048,-0.2032 -0.4064,-1.1176 -0.2032,-2.1844 -0.762,-4.5212 -2.7432,0.1524 -3.6576,0.5588 0.1016,0.5588 -0.4064,0.8636 -0.508,0.3048 -1.1684,0.0508 l -0.254,-0.254 q -0.5588,1.016 -1.0668,2.032 -0.508,0.9652 -0.8636,1.5748 -0.3048,0.6096 -0.3048,0.6604 l -0.0508,-0.0508 q -0.6096,0.7112 -1.0668,0.4572 -0.8636,-0.4572 -0.7112,-1.3208 1.3208,-2.9464 2.7432,-5.7912 1.4732,-2.8956 2.286,-4.7752 0.8636,-1.9304 1.2192,-2.794 0.4064,-0.9144 1.016,-1.6256 -0.2032,-0.4064 0.1016,-0.8636 0.3048,-0.4572 0.9652,-0.5588 1.27,0.254 1.1684,1.3716 0.8636,1.524 1.016,3.048 0.1524,1.524 0.2032,2.4892 0.1016,0.9652 0.2032,1.5748 0.1016,0.762 0.254,1.524 0.508,0.4572 0.254,1.0668 z m -6.0452,-0.7112 q 0.9652,-0.3556 3.7084,-0.508 -0.0508,-0.1524 -0.0508,-0.3048 0,-0.2032 -0.1524,-0.9144 -0.1524,-0.7112 -0.254,-1.9812 -0.1016,-1.27 -0.3556,-2.54 -0.1524,0.254 -0.3048,0.508 -0.2032,0.2032 -0.508,0.9652 -1.4224,3.4036 -2.0828,4.7752 z"
         id="path106" />
      <path
         d="m 145.45352,114.62315 q 0.2032,-1.4224 0.2032,-2.6924 -0.7112,-0.1524 -0.8128,-0.8636 -0.0508,-0.762 0.8128,-1.1176 0.0508,0 0.254,-0.1016 0.3556,-0.508 1.0668,-0.3556 1.8796,-0.7112 2.794,-0.6604 0.9652,0.0508 1.778,0.1016 2.1336,0.1524 2.9464,0.5588 0.8636,0.3556 1.524,0.6096 0.7112,0.2032 1.1684,0.7112 0.4572,0.4572 0.8636,0.8636 0.4572,0.4064 0.762,1.016 0.3048,0.6096 0.254,1.3716 0,0.762 -0.4064,1.4224 -0.762,1.3716 -2.1336,2.032 -0.6604,0.3048 -1.5748,0.762 -0.9144,0.4064 -1.9812,0.8128 1.9812,0.9652 3.6576,2.032 1.7272,1.016 2.3876,1.3716 0.7112,0.3556 1.3208,0.6096 0.6604,0.2032 1.27,0.508 1.524,0.6604 1.9812,1.4732 0.4064,1.2192 -0.8636,1.4732 h -0.1524 q -0.6604,-0.1524 -0.9144,-0.508 -2.8448,-1.4732 -5.6388,-3.0988 -2.794,-1.6764 -5.7912,-2.8448 -0.1016,-0.0508 -0.2032,-0.0508 -0.1016,-0.0508 -0.2032,-0.1016 -1.9304,0.4064 -3.4036,-0.1016 -1.4732,5.1308 -1.6256,7.7724 -0.1016,0.9652 -0.9652,1.0668 -0.3556,0 -0.7112,-0.254 -0.3048,-0.2032 -0.3556,-0.762 0.2032,-3.3528 1.016,-6.5532 0.8128,-3.2512 1.6764,-6.4516 z m 2.3876,-3.4036 q 0.1524,2.3876 -0.6604,5.8928 1.3208,0.1016 3.048,0.7112 4.7752,-1.1684 5.9944,-2.6924 0.3048,-0.4064 0.6604,-0.762 -0.0508,-2.2352 -3.2004,-3.0988 -2.4384,-0.6604 -4.9784,-0.254 -0.254,0.0508 -0.4572,0.1016 -0.2032,0 -0.4064,0.1016 z"
         id="path108" />
      <path
         d="m 168.41506,115.74075 q 0.6096,0 1.6764,1.0668 0.6604,-1.1176 1.778,-3.3528 1.1176,-2.286 1.524,-3.4036 0.4064,-1.1176 0.9652,-2.1336 0.5588,-0.4064 1.0668,-0.3048 0.508,0.1016 0.762,0.8128 0,1.6764 -0.6096,2.9464 -0.6096,1.27 -1.016,2.0828 -0.4064,0.8128 -0.762,1.7272 -0.6604,1.6256 -1.1176,4.064 -0.4064,2.3876 -0.4064,3.4036 0,0.9652 0.3556,1.6764 0.3556,0.7112 1.1176,0.6604 0.8128,-0.1016 1.3208,-0.254 0.508,-0.1524 1.016,-0.2032 0.508,-0.1016 0.8128,0.1524 0.3048,0.2032 0.4064,0.508 0.254,0.762 -0.6096,1.2192 -0.6604,0.1524 -1.3208,0.3556 -0.6096,0.2032 -1.4224,0.254 -0.762,0.0508 -1.4732,-0.254 -0.7112,-0.254 -1.2192,-0.9144 -1.016,-1.2192 -0.9652,-2.9464 0,-1.27 0.2032,-2.6924 -3.3528,5.6896 -6.2992,7.4168 -0.8128,0.4572 -1.4732,-0.2032 -1.2192,-1.9304 0.3556,-5.4864 0.9652,-2.1336 3.2004,-5.0292 0.3048,-0.4064 0.762,-0.5588 0.4572,-0.2032 0.8128,-0.4064 0.3556,-0.2032 0.5588,-0.2032 z m -0.3048,4.318 q 0.6096,-1.016 0.7112,-1.27 0.1524,-0.254 0.254,-0.3556 -0.1016,-0.0508 -0.1524,-0.0508 -0.0508,0 -0.1524,-0.0508 -0.1016,-0.1524 -0.4064,-0.3556 -2.2352,1.4224 -3.556,5.334 -0.3556,1.0668 -0.508,1.9812 1.2192,-0.8128 3.81,-5.2324 z"
         id="path110" />
      <path
         d="m 188.02385,116.75675 q 0.7112,0.6096 0.508,1.1176 -0.4064,0.9652 -1.27,0.762 -1.016,-0.4064 -2.2352,0 -2.032,0.6604 -3.4036,1.4732 0.9652,0.6096 2.032,0.9652 1.1176,0.3556 2.032,0.9144 2.1336,1.1176 2.6416,3.048 -0.1016,0.6096 -0.3556,0.9144 -2.1844,1.524 -5.588,2.2352 -3.302,0.7112 -6.0452,0.1524 -0.8636,-0.4064 -0.6604,-1.1684 0.2032,-0.7112 1.0668,-0.8128 3.2512,0.5588 7.4168,-0.7112 1.2192,-0.3556 1.9304,-0.8636 -0.8636,-0.6096 -1.9304,-1.016 -1.0668,-0.4064 -2.0828,-0.8636 -0.9652,-0.508 -1.7272,-1.1684 -0.7112,-0.6604 -0.9144,-1.8288 -0.0508,-0.7112 0.4572,-1.1176 5.08,-3.1496 8.128,-2.032 z"
         id="path112" />
    </g>
  </g>
</svg>
