<?xml version="1.0" encoding="UTF-8" standalone="no"?>
<svg
   id="e8e2026c-b237-4860-9f0c-6cc1509a5719"
   data-name="Layer 1"
   width="48"
   height="48"
   viewBox="0 0 47.999999 47.999999"
   version="1.1"
   sodipodi:docname="undraw_my_files_swob.svg"
   inkscape:version="1.1 (c4e8f9e, 2021-05-24)"
   xmlns:inkscape="http://www.inkscape.org/namespaces/inkscape"
   xmlns:sodipodi="http://sodipodi.sourceforge.net/DTD/sodipodi-0.dtd"
   xmlns="http://www.w3.org/2000/svg"
   xmlns:svg="http://www.w3.org/2000/svg">
  <defs
     id="defs165" />
  <sodipodi:namedview
     id="namedview163"
     pagecolor="#505050"
     bordercolor="#eeeeee"
     borderopacity="1"
     inkscape:pageshadow="0"
     inkscape:pageopacity="0"
     inkscape:pagecheckerboard="0"
     showgrid="false"
     inkscape:zoom="4.4902129"
     inkscape:cx="34.408168"
     inkscape:cy="22.493366"
     inkscape:window-width="1366"
     inkscape:window-height="707"
     inkscape:window-x="0"
     inkscape:window-y="0"
     inkscape:window-maximized="1"
     inkscape:current-layer="e8e2026c-b237-4860-9f0c-6cc1509a5719" />
  <g
     id="g2631"
     transform="matrix(0.13262403,0,0,0.13262403,2.5450046,-0.11078239)">
    <path
       d="M 225.8999,0 H 46.2998 a 13.76779,13.76779 0 0 0 -13.75,13.75 v 89.99 h 27.64014 a 11.87878,11.87878 0 0 1 10.10986,5.59 l 9.58008,15.25 9.16016,14.56994 1.71972,2.74 10.48,16.67 0.12012,0.19 h 138.29 v -145 A 13.76779,13.76779 0 0 0 225.8999,0 Z"
       fill="#cccccc"
       id="path110" />
    <path
       d="M 154.70996,27.51001 H 65.71972 a 8.895,8.895 0 1 0 0,17.79 h 88.99024 a 8.895,8.895 0 1 0 0,-17.79 z"
       fill="#ffffff"
       id="path112" />
    <path
       d="M 204.05957,71.19 H 66.52978 a 9.71,9.71 0 0 0 0,19.42 h 137.52979 a 9.71,9.71 0 0 0 0,-19.42 z"
       fill="#ffffff"
       id="path114" />
    <path
       d="m 212.83984,110.76001 a 9.70445,9.70445 0 0 0 -8.78027,-5.59 H 66.52978 c -0.21,0 -0.41015,0.01 -0.62011,0.02 a 11.91385,11.91385 0 0 1 4.39013,4.14 l 9.58008,15.25 h 124.17969 a 9.69745,9.69745 0 0 0 8.78027,-13.82 z"
       fill="#ffffff"
       id="path116" />
    <path
       d="m 213.66992,147.54999 a 9.7092,9.7092 0 0 0 -9.61035,-8.4 H 89.04004 l 1.71972,2.74 10.48,16.67 h 102.81981 a 9.59905,9.59905 0 0 0 5.63037,-1.81 9.69664,9.69664 0 0 0 4.06982,-7.9 9.24451,9.24451 0 0 0 -0.0898,-1.3 z"
       fill="#ffffff"
       id="path118" />
    <path
       d="m 324.26958,75.41999 -14,-5.47 -69.79981,-27.24 -83.51025,-32.59 a 13.77453,13.77453 0 0 0 -17.81006,7.82 l -2.91992,7.49 -6.94971,17.79 -10.1001,25.89 -7.58008,19.42 -5.68017,14.56 -7.58008,19.41 -5.68994,14.56994 -0.15967,0.42005 -0.91016,2.32 10.48,16.67 0.12012,0.19 h 194.10984 a 11.91612,11.91612 0 0 1 9.29,4.44 l 0.81983,-2.08 10.02,-25.66 15.66015,-40.13 a 13.77715,13.77715 0 0 0 -7.80999,-17.81999 z"
       fill="#6c63ff"
       id="path120" />
    <path
       d="m 247.12988,77.23999 -7.48,-2.92 -75.41992,-29.43 a 8.93074,8.93074 0 0 0 -11.53027,5.05 8.924,8.924 0 0 0 5.06005,11.53 l 24.91016,9.72 30.81006,12.02 26.16992,10.22 1.00977,0.39 a 8.89889,8.89889 0 0 0 6.47021,-16.58 z"
       fill="#ffffff"
       id="path122" />
    <path
       d="M 277.20996,135.88 239.6499,121.22 212.83984,110.76 198.51953,105.17 161.21972,90.61 149.09961,85.88 a 9.70982,9.70982 0 0 0 -12.23,4.73 c -0.11963,0.25 -0.23975,0.51 -0.33985,0.78 a 9.70379,9.70379 0 0 0 5.51026,12.57 l 3.09961,1.21 49.72021,19.41 44.79,17.48 30.5,11.91 a 9.62861,9.62861 0 0 0 3.52,0.66 9.70595,9.70595 0 0 0 3.54,-18.75 z"
       fill="#ffffff"
       id="path124" />
    <path
       d="m 239.6499,157.69 -2.41016,-0.94 -23.56982,-9.2 -21.53027,-8.4 -37.33985,-14.56994 -18.06006,-7.05 a 9.70758,9.70758 0 1 0 -7.0498,18.09 l 9.04,3.53 45.09961,17.6 4.64013,1.81 0.48,0.19 h 53.41015 z"
       fill="#ffffff"
       id="path126" />
    <path
       d="m 148.41992,158.56 -4.64014,-1.81 -19.39013,-7.57 a 9.69455,9.69455 0 0 0 -13.12012,7.57 9.2009,9.2009 0 0 0 -0.10986,1.81 1.12063,1.12063 0 0 0 0.0103,0.19 h 37.73975 z"
       fill="#ffffff"
       id="path128" />
    <path
       d="m 188.46972,158.56 -4.64013,-1.81 h -72.56006 a 9.2009,9.2009 0 0 0 -0.10986,1.81 h -9.91993 l 0.12012,0.19 h 87.58985 z m 0,0 h -87.23 l 0.12012,0.19 h 87.58985 z m 0,0 h -87.23 l 0.12012,0.19 h 87.58985 z m 0.48,0.19 -0.48,-0.19 h -87.23 l 0.12012,0.19 z M 13.93995,359 A 11.95822,11.95822 0 0 1 2.00001,347.06 V 115.69 a 11.96034,11.96034 0 0 1 11.93994,-11.95 h 18.60986 v -2 H 13.93994 A 13.96617,13.96617 0 0 0 0,115.69 v 231.37 a 13.95043,13.95043 0 0 0 8.16992,12.68 h 176.17969 c -0.15967,-0.24 -0.31983,-0.49 -0.48,-0.74 z M 305.5796,161.11 a 13.87759,13.87759 0 0 0 -10.10987,-4.36 h -193 l -10.7998,-17.18 -0.26025,-0.42005 -9.15967,-14.56994 -10.26026,-16.32 a 13.97619,13.97619 0 0 0 -11.7998,-6.52 h -46.25 A 13.96617,13.96617 0 0 0 1e-5,115.69001 v 231.37 a 13.95043,13.95043 0 0 0 8.16992,12.68 13.74939,13.74939 0 0 0 5.77,1.26 h 281.52979 a 13.79793,13.79793 0 0 0 5.78028,-1.26 13.95124,13.95124 0 0 0 8.16992,-12.68 v -176.36 a 13.87,13.87 0 0 0 -3.84033,-9.59003 z m 1.84033,185.95 A 11.96072,11.96072 0 0 1 295.46973,359 H 13.93994 A 11.95822,11.95822 0 0 1 2,347.06 V 115.69 a 11.96034,11.96034 0 0 1 11.93994,-11.95 h 46.25 a 11.87878,11.87878 0 0 1 10.10986,5.59 l 9.58008,15.25 9.16016,14.56994 1.71972,2.74 10.48,16.67 0.12012,0.19 h 194.10984 a 11.96045,11.96045 0 0 1 11.9502,11.95 z m -118.9502,-188.5 h -87.23 l 0.12012,0.19 h 87.58985 z m 0,0 h -87.23 l 0.12012,0.19 h 87.58985 z m 0,0 h -87.23 l 0.12012,0.19 h 87.58985 z m 0,0 -4.64013,-1.81 h -81.35988 l -10.7998,-17.18 -0.91016,2.32 10.48,16.67 0.12012,0.19 h 87.58985 z"
       fill="#3f3d56"
       id="path130" />
    <g
       id="g2102"
       transform="matrix(0.66062226,0,0,0.66062226,87.42907,197.30173)">
      <circle
         cx="98.753799"
         cy="98.753799"
         r="98.753799"
         fill="#e4e4e4"
         id="circle1802" />
      <circle
         cx="98.753799"
         cy="98.753799"
         r="82.29483"
         fill="#6c63ff"
         id="circle1804" />
      <path
         d="m 91.76087,128.5136 q -0.22063,0 -0.44189,-0.0107 a 9.03472,9.03472 0 0 1 -6.69885,-3.48047 L 71.99647,108.79196 a 9.05414,9.05414 0 0 1 1.58594,-12.690921 l 0.4541,-0.35351 a 9.05549,9.05549 0 0 1 12.69177,1.58593 8.044,8.044 0 0 0 12.18909,0.59424 l 25.63244,-27.05761 a 9.04362,9.04362 0 0 1 12.78565,-0.34522 l 0.41846,0.39649 a 9.04347,9.04347 0 0 1 0.34509,12.78466 L 98.32423,125.68942 a 9.03339,9.03339 0 0 1 -6.56336,2.82422 z"
         fill="#ffffff"
         id="path1814" />
    </g>
  </g>
</svg>
